PathFileType	4	(X/Y/Z)	C:\Users\WrightLab\Desktop\Jo\P1_boxCal30.trc
DataRate	CameraRate	NumFrames	NumMarkers	Units	OrigDataRate	OrigDataStartFrame	OrigNumFrames
100.00	100.00	       20	19	mm	100.00	61	       481
Frame#	Time	Headset_Front			Headset_Back			Headset_Left			Headset_Right			Left_Shoulder			Right_Shoulder			Sternum			C7			Left Elbow			Right Elbow			Left Wrist			Right Wrist			Left ASIS			Right ASIS			S2			Left Knee			Right Knee			Left Ankle			Right Ankle			
		X1	Y1	Z1	X2	Y2	Z2	X3	Y3	Z3	X4	Y4	Z4	X5	Y5	Z5	X6	Y6	Z6	X7	Y7	Z7	X8	Y8	Z8	X9	Y9	Z9	X10	Y10	Z10	X11	Y11	Z11	X12	Y12	Z12	X13	Y13	Z13	X14	Y14	Z14	X15	Y15	Z15	X16	Y16	Z16	X17	Y17	Z17	X18	Y18	Z18	X19	Y19	Z19	

61	0.600	-647.99780	1369.78394	-750.59973	-576.83759	1476.51978	-1027.75232	-499.83710	1413.10974	-892.59497	-725.35590	1409.58301	-872.21826	-409.55237	1252.24414	-957.22278	-785.82623	1234.79248	-1004.73138	-628.45490	1125.81860	-873.71350	-571.53076	1261.19421	-1092.10193	-320.76010	944.17181	-1036.37842	-875.03235	972.84979	-1068.17786	-298.51218	738.02863	-939.63025	-943.66528	740.54053	-1000.64008	-534.35535	847.89758	-856.33954	-721.65570	848.27130	-916.49335	-524.84991	878.77179	-1182.02100	-426.30054	450.01083	-844.13428	-754.74268	418.38474	-1060.02112	-407.79474	147.75601	-1049.30078				
62	0.610	-649.71277	1369.94006	-741.66882	-581.35645	1476.15576	-1019.22333	-504.12582	1413.54919	-886.11072	-729.35327	1410.62976	-863.22449	-414.23828	1252.59192	-951.73328	-790.12842	1234.10681	-994.49341				-577.18475	1260.94336	-1083.48389	-324.69485	944.94708	-1028.69519	-881.23303	973.46497	-1056.00525	-303.13144	739.30652	-930.40826	-949.55151	741.29834	-985.85681	-538.23346	846.95343	-846.18018	-723.73383	848.33972	-909.67719	-527.40515	878.68652	-1174.14795	-434.59128	454.48581	-831.29010	-755.84943	419.04999	-1058.89868	-420.87924	139.39095	-1023.08356				
63	0.620	-651.69922	1370.00305	-732.19226	-585.85626	1475.80615	-1010.66833	-507.92133	1413.39722	-877.68848	-732.54651	1410.52466	-853.57324	-418.66904	1252.60278	-943.63550	-795.21918	1234.38293	-984.72864				-582.58484	1260.93091	-1074.94324	-328.47324	945.98584	-1021.01788	-887.03333	972.78778	-1043.39478	-307.51926	740.24280	-921.36823	-954.65070	740.86584	-970.69012	-540.71008	845.20422	-846.94025	-726.04675	847.84833	-902.86652	-529.62604	878.84906	-1167.11731	-443.34460	457.82303	-818.48608	-754.95764	419.52176	-1056.22644	-434.77902	130.54390	-994.98926				
64	0.630	-655.48517	1370.85010	-723.35669	-590.00305	1475.58716	-1002.76892	-511.88403	1413.14099	-869.69440	-736.13861	1411.32312	-844.69958	-423.26120	1252.86243	-936.14209	-799.52826	1233.60266	-974.38586	-640.25482	1127.37744	-846.67615	-587.96259	1260.65625	-1066.76538	-331.94623	946.37836	-1015.21478	-892.56293	972.78986	-1031.29858	-311.62851	741.13721	-912.66431	-960.80579	741.26068	-955.87482	-544.19592	846.78076	-831.49512	-728.67694	846.95782	-895.70374	-531.85767	878.33411	-1159.30151	-451.40021	461.13489	-808.06720	-755.29315	418.66833	-1050.95593	-446.63269	121.83372	-966.05774				
65	0.640	-658.05316	1370.07629	-714.18359	-594.14832	1475.04578	-993.89752	-514.57379	1411.55273	-857.75073	-739.55731	1411.47388	-835.19617	-427.72501	1251.87500	-927.39581	-803.87109	1232.84534	-963.83331	-645.54498	1125.94922	-838.10699	-593.36414	1259.86035	-1058.27271	-334.07492	946.69293	-1009.41412	-898.42261	972.25970	-1019.08893	-315.35654	741.94336	-903.36768	-966.03522	741.08875	-940.83679	-547.56647	846.33813	-823.46777	-731.34656	846.45850	-888.61267				-459.36420	462.35812	-795.35358	-755.46503	418.43640	-1045.84448	-458.33862	114.26849	-936.80652				
66	0.650	-661.87732	1370.89624	-705.70660	-598.23730	1474.50183	-985.52588	-517.87445	1411.67212	-852.29535	-742.99854	1411.72217	-825.83429	-432.22754	1252.44861	-920.67865	-808.10065	1232.25305	-953.67029				-598.53430	1259.27271	-1049.20203	-338.13724	947.15424	-1001.19928	-903.49774	971.92920	-1007.36456	-318.50943	743.12158	-895.37225	-970.06976	740.60278	-926.07721	-552.42267	845.86499	-814.74414	-735.68878	845.65228	-879.09296	-536.28174	877.33618	-1142.49939	-467.49112	464.90070	-784.15125	-755.94653	418.94907	-1043.05518	-468.86484	104.98697	-905.56189				
67	0.660	-664.11487	1371.04883	-696.62915	-602.15997	1473.71143	-977.15570	-521.67920	1410.85901	-842.35339	-745.81671	1411.97729	-816.30145	-435.68045	1252.05920	-914.38367	-812.81793	1231.19641	-942.84351	-650.56952	1123.76843	-817.92590	-603.57648	1258.40735	-1039.99329	-342.00583	947.70892	-994.45795	-908.13062	970.50830	-994.41791	-322.37415	743.97418	-885.57123	-973.96362	740.86688	-912.87805	-556.50220	845.05322	-806.28735	-739.78638	840.38220	-884.59747	-538.57996	877.65009	-1135.01953	-474.39828	466.98849	-774.40894	-757.15869	416.77423	-1036.07410	-479.94565	96.02647	-873.23273				
68	0.670	-664.74036	1370.70996	-686.69507	-606.00702	1472.82239	-968.67847	-525.01227	1410.51184	-835.16443	-748.38843	1411.07080	-805.90503	-440.08179	1251.71753	-904.66626	-816.85284	1230.47986	-932.27911	-655.12183	1122.25757	-809.33563	-608.31207	1257.92981	-1030.46765	-345.85425	947.45276	-987.51062	-913.15814	970.18414	-983.01556	-325.83105	743.74072	-875.75653	-978.53271	740.23871	-897.86151	-560.63007	843.13495	-798.70654	-743.39288	838.80426	-873.59033	-540.87640	877.60492	-1126.14832	-482.11224	467.52521	-763.11224	-758.41876	415.64450	-1031.53516	-490.68143	88.99409	-839.33209				
69	0.680	-667.49591	1370.40149	-677.36542	-609.74011	1471.91907	-959.83002	-527.88916	1409.14673	-825.31622	-751.65289	1411.78821	-796.70770	-444.27286	1251.46521	-898.02734	-820.19574	1229.19116	-921.54205				-613.00903	1257.42932	-1021.82178	-348.05621	947.81677	-981.06250	-917.69128	968.89502	-970.84119	-328.27322	744.76709	-867.86798	-982.73291	739.79938	-884.71613	-562.91516	843.72076	-789.01465	-746.90948	837.84821	-865.21387	-543.26709	877.37915	-1117.40271	-488.42285	468.00739	-753.31104	-759.11407	415.44000	-1027.57825	-502.97754	81.78812	-805.92096				
70	0.690	-670.40771	1371.05969	-668.33203	-613.42078	1470.73767	-951.16876	-529.89532	1408.41357	-818.77667	-753.89575	1411.02905	-786.74402	-447.83649	1250.72839	-887.99268	-823.96088	1228.23267	-910.76880				-617.36334	1256.82837	-1012.13898	-352.29358	947.93359	-974.63367	-921.33130	968.22412	-958.98529	-330.93561	745.36334	-858.93396	-986.02271	738.97668	-870.45898	-566.41785	842.22278	-780.61182	-751.62628	836.00311	-858.83893	-545.35168	877.77655	-1109.11072	-495.92410	467.90298	-744.86066	-760.24078	413.63727	-1022.34277	-514.33105	77.25327	-773.07739				
71	0.700	-671.33234	1370.05664	-658.38635	-617.11841	1469.55640	-942.65491	-533.21759	1407.70618	-810.40942	-756.42529	1410.25830	-776.65686	-451.20407	1250.06836	-880.94489	-827.56622	1226.83618	-900.09839	-663.39966	1118.08130	-780.32751	-621.65070	1255.66321	-1003.01837	-356.51471	948.25018	-966.91882	-924.80157	966.69110	-946.79187	-333.47647	745.82361	-849.77570	-989.40399	738.82373	-856.97449	-569.70221	840.37463	-770.25470	-755.78522	834.74762	-850.80731	-547.25092	878.12280	-1100.59607	-501.68317	466.81906	-734.45789	-760.93201	411.69208	-1016.20337	-524.22070	74.97923	-740.29407				
72	0.710	-672.58447	1370.03479	-648.84143	-620.51929	1468.44788	-933.68671	-536.34589	1406.27307	-799.84094	-758.81000	1409.53259	-766.28784	-454.69376	1249.24817	-870.92200	-831.17090	1225.90979	-889.60803				-625.70074	1254.56226	-993.16455	-359.73251	947.47723	-958.31873	-927.92755	965.07996	-934.78436	-335.42661	745.99963	-840.54211	-992.15814	738.10065	-843.59747	-573.04523	839.91876	-760.28052	-759.11865	833.02661	-842.11371	-549.13568	877.33142	-1090.54956	-507.56186	465.73392	-726.16473	-760.95923	410.55753	-1011.49884	-532.76105	75.72783	-709.52557				
73	0.720	-673.11554	1369.25183	-639.16968	-624.03040	1467.07190	-924.71875	-538.19342	1406.16040	-795.50531	-762.39154	1409.23157	-757.10724	-458.57309	1248.92798	-862.48132	-834.29993	1225.06506	-879.80359	-668.74194	1115.57202	-760.18512	-629.50519	1253.31982	-983.32233	-363.24536	947.09583	-951.01324	-931.14325	964.14032	-923.24243	-337.61420	745.51160	-831.29749	-994.56738	736.94000	-830.17981	-576.98706	839.34442	-750.89972	-762.77075	833.35028	-830.22815	-550.75360	876.77179	-1080.21863	-512.68604	464.44711	-717.84058	-761.75928	408.20233	-1004.80341	-542.42468	78.16965	-679.11938				
74	0.730	-675.66144	1369.46301	-629.81244	-627.36450	1465.82910	-915.90076	-540.76172	1404.19946	-783.56219	-762.87231	1408.35107	-746.24286	-461.79819	1247.25671	-852.24628	-837.57861	1223.76721	-869.36096	-672.32996	1114.00439	-751.33521	-633.04559	1252.31555	-974.34033	-366.35355	947.22296	-944.41705	-933.97791	962.36023	-911.70691	-339.02676	746.37262	-823.64441	-996.44318	736.15222	-817.53534	-582.35809	837.77643	-739.69952	-766.57056	831.05768	-824.58777	-552.64514	875.84070	-1069.28503	-516.88617	462.23273	-708.39075	-762.02850	407.76947	-1000.50952	-551.89026	82.42259	-649.69861				
75	0.740	-676.52252	1367.84082	-619.75171	-630.65515	1464.53870	-906.87390	-543.51611	1403.73767	-776.17151	-764.97473	1407.57495	-736.27991	-464.33749	1246.74500	-844.38660	-840.35828	1222.22339	-858.72021	-675.80151	1115.06873	-740.74683	-636.14459	1251.23938	-964.35974	-369.90427	945.98645	-935.24945	-936.01703	961.63739	-899.95892	-341.48090	745.55914	-814.20404	-998.69629	735.65967	-805.14520	-585.53564	836.48401	-729.56488	-770.52570	828.82678	-819.13763	-554.13397	875.26031	-1059.04089	-521.18909	459.53522	-699.20874	-762.40790	406.98233	-994.91199	-559.82642	87.92038	-623.36737				
76	0.750	-676.76147	1367.80798	-610.01477	-633.75922	1463.27075	-897.58411	-544.97430	1402.24133	-767.33234	-768.37213	1406.65369	-726.78259	-467.65454	1245.94324	-833.92548	-842.97937	1221.34143	-848.35547				-639.05811	1249.78894	-954.85852	-372.00214	945.42395	-927.20630	-938.14343	959.54749	-888.14099	-343.00708	744.84064	-805.21613	-1000.96490	734.39136	-791.48468	-589.56482	836.03137	-719.35736	-774.83844	830.77972	-804.15100	-556.03076	874.16467	-1047.50403	-526.17554	457.26318	-689.98639	-763.00171	406.56757	-989.15344	-567.68378	95.76012	-598.19629				
77	0.760	-678.05206	1366.89307	-599.72968	-636.80438	1462.06274	-888.42633	-547.06793	1400.80652	-757.04974	-768.13434	1405.31445	-715.23981	-469.96902	1244.44312	-824.28729	-845.16925	1220.39551	-838.88916	-681.08356	1112.12756	-720.12415	-641.65051	1248.32373	-944.64520	-375.29163	943.46503	-915.83948	-940.28754	958.89081	-877.45013	-344.96310	743.55219	-795.40894	-1002.86261	733.59711	-779.19659	-593.19501	835.72186	-709.82867	-777.43420	829.60175	-796.60712	-557.72778	872.64722	-1035.35449	-530.28094	454.49994	-679.87079	-763.59686	405.62473	-981.86096	-574.85718	103.34721	-575.81488				
78	0.770	-677.77155	1365.57397	-589.47595	-639.53937	1461.00293	-878.83398	-549.23474	1400.79126	-750.81512	-769.88043	1404.57263	-704.98523	-471.78384	1243.29749	-814.29688	-847.54626	1219.17310	-829.01569	-681.36182	1112.70508	-708.73480	-643.92255	1247.09131	-935.34357	-377.25510	942.65649	-907.17828	-942.13019	956.20398	-866.33905	-346.62836	742.54272	-786.71570	-1003.51813	732.55414	-767.03094	-597.67242	834.26801	-698.38861	-780.76733	829.89008	-782.54224	-559.92303	871.70154	-1023.80841	-534.15326	453.06647	-668.85352	-765.07080	405.70340	-976.43622	-584.80750	108.28765	-556.88086				
79	0.780	-680.02509	1365.63843	-580.76959	-642.07098	1460.04895	-869.44409	-550.47693	1398.86023	-739.44727	-771.45026	1403.55054	-694.53119	-474.18079	1242.09497	-805.47595	-849.85388	1218.59070	-819.29993	-685.57593	1110.78027	-700.21674	-645.81982	1245.26013	-924.50024	-379.46741	942.08649	-897.32629	-943.85583	956.24780	-855.72449	-348.06387	741.09344	-777.08386	-1004.51263	731.72211	-755.13556	-601.40662	833.25970	-686.69110	-783.48077	828.43256	-774.68799	-561.94287	869.96832	-1011.47595	-537.99347	450.39813	-657.13019	-766.57318	405.93179	-970.15167	-590.84924	112.60292	-540.35504				
80	0.790	-680.05249	1364.97266	-570.56476	-644.35791	1459.52893	-859.70459	-552.47565	1399.08142	-732.81671	-772.17889	1402.69019	-684.17126	-476.11188	1241.05859	-793.82361	-851.90179	1217.73706	-809.72192	-688.00470	1110.38257	-688.63141	-647.58600	1243.99414	-915.45837	-381.18430	939.83789	-886.70813	-945.77716	954.29352	-845.30743	-349.30307	739.43408	-767.78284	-1006.06940	730.96118	-742.29694	-604.34546	833.32581	-675.46313	-787.11108	828.45001	-762.59955	-563.87762	868.52881	-998.93054	-540.88196	449.00076	-646.51617	-768.38727	406.03943	-963.64410	-596.31598	114.47264	-525.81836				
